<svg width="1081" height="609" viewBox="0 0 1081 609" fill="none" xmlns="http://www.w3.org/2000/svg">
<path d="M540.934 133.91C634.988 133.91 711.233 210.152 711.233 304.201C711.233 398.25 634.987 474.492 540.934 474.492C446.881 474.492 370.634 398.25 370.634 304.201C370.634 210.152 446.88 133.91 540.934 133.91ZM713.999 137.846C790.515 154.55 847.804 222.694 847.804 304.218C847.804 385.742 790.515 453.887 713.999 470.591V367.436C735.814 354.816 750.491 331.231 750.491 304.218C750.491 277.205 735.814 253.619 713.999 241V137.846ZM367.886 240.989C346.07 253.609 331.393 277.194 331.393 304.207C331.393 331.22 346.07 354.805 367.886 367.425V470.579C291.37 453.875 234.08 385.731 234.08 304.207C234.08 222.683 291.37 154.539 367.886 137.835V240.989ZM850.552 150.318C908.089 177.649 947.867 236.289 947.867 304.221C947.867 372.153 908.089 430.793 850.552 458.124V150.318ZM231.332 458.112C173.795 430.781 134.018 372.142 134.018 304.21C134.018 236.278 173.795 177.638 231.332 150.307V458.112ZM540.934 231.219C500.625 231.219 467.949 263.894 467.949 304.201C467.949 344.508 500.625 377.183 540.934 377.183C581.243 377.182 613.919 344.508 613.919 304.201C613.919 263.895 581.243 231.219 540.934 231.219Z" fill="#1A1B1C"/>
</svg>
